<?xml version="1.0" encoding="UTF-8" standalone="no"?>
<svg
   width="512px"
   height="512px"
   viewBox="0 0 512 512"
   version="1.1"
   id="svg4"
   sodipodi:docname="donate-svgrepo-com.svg"
   inkscape:version="1.1.2 (0a00cf5339, 2022-02-04)"
   xmlns:inkscape="http://www.inkscape.org/namespaces/inkscape"
   xmlns:sodipodi="http://sodipodi.sourceforge.net/DTD/sodipodi-0.dtd"
   xmlns="http://www.w3.org/2000/svg"
   xmlns:svg="http://www.w3.org/2000/svg">
  <defs
     id="defs8" />
  <sodipodi:namedview
     id="namedview6"
     pagecolor="#505050"
     bordercolor="#ffffff"
     borderopacity="1"
     inkscape:pageshadow="0"
     inkscape:pageopacity="0"
     inkscape:pagecheckerboard="1"
     showgrid="false"
     inkscape:zoom="1.6054688"
     inkscape:cx="232.95377"
     inkscape:cy="355.65937"
     inkscape:window-width="1920"
     inkscape:window-height="1007"
     inkscape:window-x="0"
     inkscape:window-y="0"
     inkscape:window-maximized="1"
     inkscape:current-layer="svg4" />
  <path
     id="path32"
     style="fill:#000000;fill-opacity:1;stroke-width:1.1577"
     d="m 435.8018,206.42633 c 0,102.45768 -80.32633,185.51604 -179.41389,185.51604 -99.08756,0 -179.413896,-83.05836 -179.413896,-185.51604 2e-6,-102.45768 80.326336,-185.516039 179.413896,-185.516036 99.08755,0 179.41389,83.058356 179.41389,185.516036 z M 256,416 C 370.9,416 464,322.9 464,208 464,93.1 370.9,0 256,0 141.1,0 48,93.1 48,208 48,322.9 141.1,416 256,416 Z M 233.8,97.4 V 80.6 c 0,-9.2 7.4,-16.6 16.6,-16.6 h 11.1 c 9.2,0 16.6,7.4 16.6,16.6 v 17 c 15.5,0.8 30.5,6.1 43,15.4 5.6,4.1 6.2,12.3 1.2,17.1 L 306,145.6 c -3.8,3.7 -9.5,3.8 -14,1 -5.4,-3.4 -11.4,-5.1 -17.8,-5.1 h -38.9 c -9,0 -16.3,8.2 -16.3,18.3 0,8.2 5,15.5 12.1,17.6 l 62.3,18.7 c 25.7,7.7 43.7,32.4 43.7,60.1 0,34 -26.4,61.5 -59.1,62.4 v 16.8 c 0,9.2 -7.4,16.6 -16.6,16.6 h -11.1 c -9.2,0 -16.6,-7.4 -16.6,-16.6 v -17 c -15.5,-0.8 -30.5,-6.1 -43,-15.4 -5.6,-4.1 -6.2,-12.3 -1.2,-17.1 l 16.3,-15.5 c 3.8,-3.7 9.5,-3.8 14,-1 5.4,3.4 11.4,5.1 17.8,5.1 h 38.9 c 9,0 16.3,-8.2 16.3,-18.3 0,-8.2 -5,-15.5 -12.1,-17.6 l -62.3,-18.7 c -25.7,-7.7 -43.7,-32.4 -43.7,-60.1 0.1,-34 26.4,-61.5 59.1,-62.4 z M 480,352 h -32.5 c -19.6,26 -44.6,47.7 -73,64 h 63.8 c 5.3,0 9.6,3.6 9.6,8 v 16 c 0,4.4 -4.3,8 -9.6,8 H 73.6 c -5.3,0 -9.6,-3.6 -9.6,-8 v -16 c 0,-4.4 4.3,-8 9.6,-8 h 63.8 C 109,399.7 84.1,378 64.4,352 H 32 C 14.3,352 0,366.3 0,384 v 65.44723 C 0,483.80645 32.428288,512 63.447308,512 H 439.7224 C 477.2089,512 512,483.34256 512,448.57398 V 384 c 0,-17.7 -14.3,-32 -32,-32 z"
     sodipodi:nodetypes="sssssssssscsssscccccsssccscsssscccccsssccccsccssssssssccssssssss" />
  <rect
     style="fill:#000000;fill-opacity:1;stroke-width:0.744679"
     id="rect1833"
     width="17.100517"
     height="188.84946"
     x="247.55452"
     y="114.30291" />
</svg>
